<svg width="530" height="122" viewBox="0 0 530 122" fill="none" xmlns="http://www.w3.org/2000/svg">
<path d="M10.847 15.136V26.848H26.335V34.4H10.847V52H0.287V7.648H29.407L28.383 15.136H10.847ZM62.15 16.992C64.454 16.992 66.182 17.376 67.782 18.016L65.926 32.224H59.526V25.952C55.686 26.656 52.742 30.432 51.142 35.488V45.216H57.862V52H36.55V45.216H41.03V24.736H36.55V18.016H48.774L50.566 25.632C52.998 19.808 56.71 16.992 62.15 16.992ZM103.213 42.208C103.213 44.768 103.853 45.728 105.453 46.304L103.341 52.96C99.373 52.576 96.621 51.296 95.021 48.48C92.397 51.616 88.109 53.088 83.885 53.088C76.845 53.088 72.365 48.672 72.365 42.4C72.365 35.04 78.445 30.816 88.941 30.816H93.485V29.6C93.485 26.016 91.117 24.352 86.765 24.352C84.589 24.352 80.813 24.992 77.421 26.144L75.117 19.424C79.533 17.76 84.589 16.864 88.365 16.864C98.477 16.864 103.213 21.088 103.213 28.896V42.208ZM87.341 45.856C89.517 45.856 92.205 44.512 93.485 42.144V36.576H90.989C85.357 36.576 82.797 38.368 82.797 41.696C82.797 44.32 84.461 45.856 87.341 45.856ZM131.028 45.088C133.78 45.088 136.148 43.872 138.58 42.208L143.06 48.608C140.052 51.168 135.7 53.088 130.452 53.088C119.444 53.088 112.916 45.856 112.916 35.232C112.916 24.608 119.7 16.864 130.644 16.864C135.764 16.864 139.668 18.336 143.06 21.152L138.708 27.232C136.404 25.632 133.844 24.672 131.092 24.672C126.484 24.672 123.476 27.552 123.476 35.232C123.476 42.784 126.676 45.088 131.028 45.088ZM181.947 50.016C179.259 51.744 175.483 53.088 170.811 53.088C161.915 53.088 157.691 48.224 157.691 40.416V24.992H150.587V18.016H157.691V10.656L167.803 9.44V18.016H178.747L177.723 24.992H167.803V40.416C167.803 43.808 169.275 45.088 172.667 45.088C175.035 45.088 177.019 44.448 178.619 43.552L181.947 50.016ZM204.386 0.223999C207.906 0.223999 210.338 2.72 210.338 5.92C210.338 9.184 207.906 11.616 204.386 11.616C200.866 11.616 198.37 9.184 198.37 5.92C198.37 2.72 200.866 0.223999 204.386 0.223999ZM210.466 18.016V45.088H219.17V52H190.754V45.088H200.354V24.928H191.074V18.016H210.466ZM242.825 16.864C253.321 16.864 259.337 24.032 259.337 34.912C259.337 46.304 253.257 53.088 242.825 53.088C232.393 53.088 226.313 46.432 226.313 34.976C226.313 24.16 232.393 16.864 242.825 16.864ZM242.825 24.352C238.665 24.352 236.745 27.552 236.745 34.976C236.745 42.528 238.665 45.664 242.825 45.664C246.985 45.664 248.905 42.528 248.905 34.912C248.905 27.552 246.985 24.352 242.825 24.352ZM266.48 52V18.016H275.312L276.016 21.92C279.024 18.528 282.224 16.864 286.576 16.864C292.4 16.864 295.92 20.576 295.92 27.04V52H285.808V29.984C285.808 25.76 285.04 24.352 282.544 24.352C280.368 24.352 278.512 25.824 276.592 28.256V52H266.48ZM333.463 42.208C333.463 44.768 334.103 45.728 335.703 46.304L333.591 52.96C329.623 52.576 326.871 51.296 325.271 48.48C322.647 51.616 318.359 53.088 314.135 53.088C307.095 53.088 302.615 48.672 302.615 42.4C302.615 35.04 308.695 30.816 319.191 30.816H323.735V29.6C323.735 26.016 321.367 24.352 317.015 24.352C314.839 24.352 311.063 24.992 307.671 26.144L305.367 19.424C309.783 17.76 314.839 16.864 318.615 16.864C328.727 16.864 333.463 21.088 333.463 28.896V42.208ZM317.591 45.856C319.767 45.856 322.455 44.512 323.735 42.144V36.576H321.239C315.607 36.576 313.047 38.368 313.047 41.696C313.047 44.32 314.711 45.856 317.591 45.856ZM360.958 4.512V41.312C360.958 44.064 362.622 45.088 365.31 45.088C367.102 45.088 368.766 44.64 370.174 44.064L372.542 50.848C370.302 52.064 367.102 53.088 362.75 53.088C354.558 53.088 350.846 48.032 350.846 40.032V11.424H340.862V4.512H360.958Z" fill="white"/>
<path d="M438.412 6.496C444.812 6.496 448.908 8.288 452.62 11.36L447.5 17.568C445.068 15.584 442.124 14.304 438.668 14.304C433.036 14.304 428.556 18.848 428.556 29.728C428.556 40.416 432.78 44.96 438.86 44.96C443.276 44.96 445.964 42.976 448.46 40.992L453.196 47.072C449.932 50.4 445.132 53.088 438.284 53.088C426.252 53.088 417.676 44.96 417.676 29.728C417.676 14.88 426.7 6.496 438.412 6.496ZM478.259 15.712V52H467.763V15.712H455.283V7.648H491.187L490.163 15.712H478.259ZM529.178 29.792C529.178 43.872 523.098 53.088 511.45 53.088C499.802 53.088 493.722 44.192 493.722 29.792C493.722 15.712 499.802 6.496 511.45 6.496C523.098 6.496 529.178 15.392 529.178 29.792ZM518.426 29.792C518.426 18.912 516.442 14.176 511.45 14.176C506.458 14.176 504.474 18.912 504.474 29.792C504.474 40.672 506.522 45.408 511.45 45.408C516.57 45.408 518.426 40.544 518.426 29.792Z" fill="#EF4136"/>
<path d="M52.5402 85.888C52.5402 89.696 49.5962 92.352 44.4762 92.352C41.2442 92.352 38.5882 91.36 36.7322 89.568L38.3962 87.68C39.9322 89.12 41.8202 90.048 44.5082 90.048C47.1962 90.048 49.6282 88.736 49.6282 85.952C49.6282 83.808 48.6042 82.752 44.8282 81.664C40.4442 80.384 37.7242 78.784 37.7242 75.296C37.7242 71.968 40.6362 69.6 44.8602 69.6C47.8682 69.6 50.0442 70.528 51.9002 72.128L50.2362 73.92C48.6682 72.544 46.8122 71.936 44.9562 71.936C42.5242 71.936 40.5402 72.992 40.5402 75.2C40.5402 77.088 41.8842 78.048 46.0762 79.264C49.5322 80.256 52.5402 81.696 52.5402 85.888ZM99.3757 74.784C104.112 74.784 106.608 78.24 106.608 83.552C106.608 88.736 104.048 92.352 99.3437 92.352C94.6077 92.352 92.0797 88.896 92.0797 83.584C92.0797 78.4 94.6397 74.784 99.3757 74.784ZM99.3757 76.992C96.4637 76.992 94.9917 79.104 94.9917 83.584C94.9917 88.064 96.4317 90.144 99.3437 90.144C102.256 90.144 103.696 88.064 103.696 83.552C103.696 79.104 102.256 76.992 99.3757 76.992ZM153.923 68.352V87.84C153.923 89.504 155.075 90.112 156.707 90.112C157.699 90.112 158.595 89.888 159.523 89.536L160.227 91.488C159.331 91.968 157.955 92.352 156.227 92.352C153.251 92.352 151.235 90.624 151.235 87.712V70.496H146.051V68.352H153.923ZM204.407 75.136V87.104C204.407 89.28 205.303 90.24 207.255 90.24C209.111 90.24 210.903 88.992 211.831 87.552V75.136H214.519V92H212.215L211.991 89.728C210.647 91.424 208.567 92.352 206.583 92.352C203.319 92.352 201.719 90.528 201.719 87.392V75.136H204.407ZM269.514 91.136C268.33 91.904 266.57 92.352 264.97 92.352C261.354 92.352 259.306 90.24 259.306 87.296V77.248H255.434V75.136H259.306V71.328L261.994 71.008V75.136H267.85L267.498 77.248H261.994V87.264C261.994 89.12 262.922 90.112 265.226 90.112C266.474 90.112 267.562 89.792 268.458 89.312L269.514 91.136ZM316.894 67.264C318.078 67.264 318.878 68.064 318.878 69.152C318.878 70.24 318.078 71.04 316.894 71.04C315.742 71.04 314.974 70.24 314.974 69.152C314.974 68.064 315.742 67.264 316.894 67.264ZM319.038 75.136V89.856H323.774V92H311.166V89.856H316.35V77.28H311.326V75.136H319.038ZM371.313 74.784C376.049 74.784 378.545 78.24 378.545 83.552C378.545 88.736 375.985 92.352 371.281 92.352C366.545 92.352 364.017 88.896 364.017 83.584C364.017 78.4 366.577 74.784 371.313 74.784ZM371.313 76.992C368.401 76.992 366.929 79.104 366.929 83.584C366.929 88.064 368.369 90.144 371.281 90.144C374.193 90.144 375.633 88.064 375.633 83.552C375.633 79.104 374.193 76.992 371.313 76.992ZM419.269 92V75.136H421.573L421.797 77.504C423.141 75.776 425.381 74.784 427.365 74.784C430.661 74.784 432.101 76.64 432.101 79.776V92H429.413V81.76C429.413 78.304 429.061 76.928 426.533 76.928C424.549 76.928 422.853 78.4 421.957 79.744V92H419.269ZM479.416 90.144C482.008 90.144 483.576 89.088 483.576 87.456C483.576 85.952 483.096 85.152 479.512 84.256C476.024 83.392 473.752 82.336 473.752 79.392C473.752 76.576 476.344 74.784 480.152 74.784C482.872 74.784 484.856 75.616 486.296 76.64L485.08 78.496C483.832 77.632 482.392 76.96 480.216 76.96C477.528 76.96 476.568 77.888 476.568 79.168C476.568 80.704 477.624 81.216 481.016 82.144C484.312 83.04 486.488 84.192 486.488 87.328C486.488 90.944 483 92.352 479.416 92.352C476.344 92.352 474.264 91.328 472.824 90.08L474.328 88.32C475.64 89.408 477.432 90.144 479.416 90.144Z" fill="white"/>
<path d="M129.944 115.184H125.576L124.696 118H123.32L126.92 106.976H128.68L132.264 118H130.824L129.944 115.184ZM125.944 114.032H129.576L127.768 108.16L125.944 114.032ZM150.78 114.944C150.78 116.848 149.308 118.176 146.748 118.176C145.132 118.176 143.804 117.68 142.876 116.784L143.708 115.84C144.476 116.56 145.42 117.024 146.764 117.024C148.108 117.024 149.324 116.368 149.324 114.976C149.324 113.904 148.812 113.376 146.924 112.832C144.732 112.192 143.372 111.392 143.372 109.648C143.372 107.984 144.828 106.8 146.94 106.8C148.444 106.8 149.532 107.264 150.46 108.064L149.628 108.96C148.844 108.272 147.916 107.968 146.988 107.968C145.772 107.968 144.78 108.496 144.78 109.6C144.78 110.544 145.452 111.024 147.548 111.632C149.276 112.128 150.78 112.848 150.78 114.944ZM155.173 108.128V111.84H159.269V112.976H155.173V116.88H160.197V118H153.797V106.976H160.053L159.893 108.128H155.173ZM169.967 110.08C169.967 111.728 168.799 112.736 167.279 113.12L170.559 118H168.895L165.871 113.28H164.383V118H163.007V106.976H165.823C168.543 106.976 169.967 108.032 169.967 110.08ZM168.495 110.08C168.495 108.656 167.679 108.096 165.983 108.096H164.383V112.192H165.999C167.583 112.192 168.495 111.6 168.495 110.08ZM175.801 116.416L178.777 106.976H180.169L176.489 118H175.049L171.369 106.976H172.857L175.801 116.416ZM188.515 106.976V108.096H186.067V116.896H188.515V118H182.211V116.896H184.659V108.096H182.211V106.976H188.515ZM195.884 106.8C197.324 106.8 198.204 107.184 199.084 107.872L198.3 108.784C197.596 108.192 196.828 107.968 195.98 107.968C194.188 107.968 192.62 109.12 192.62 112.48C192.62 115.76 194.076 116.992 195.964 116.992C197.196 116.992 197.932 116.544 198.524 116.08L199.244 116.976C198.572 117.632 197.516 118.176 195.948 118.176C193.26 118.176 191.164 116.192 191.164 112.48C191.164 108.768 193.34 106.8 195.884 106.8ZM203.142 108.128V111.84H207.238V112.976H203.142V116.88H208.166V118H201.766V106.976H208.022L207.862 108.128H203.142ZM227.786 112.496C227.786 115.84 226.41 118.176 223.738 118.176C221.066 118.176 219.69 115.92 219.69 112.512C219.69 109.184 221.066 106.8 223.738 106.8C226.41 106.8 227.786 109.104 227.786 112.496ZM226.346 112.496C226.346 109.568 225.594 107.968 223.738 107.968C221.882 107.968 221.13 109.584 221.13 112.512C221.13 115.456 221.93 117.008 223.738 117.008C225.594 117.008 226.346 115.44 226.346 112.496ZM232.131 108.128V111.984H236.451V113.104H232.131V118H230.739V106.976H237.235L237.075 108.128H232.131ZM256.359 114.864C256.359 117.264 254.247 118 252.231 118H249.255V106.976H251.975C253.911 106.976 255.879 107.6 255.879 109.76C255.879 111.184 254.871 111.92 253.815 112.16C255.047 112.368 256.359 112.992 256.359 114.864ZM254.455 109.84C254.455 108.576 253.623 108.112 252.295 108.112H250.647V111.664H252.423C253.719 111.664 254.455 111.12 254.455 109.84ZM254.887 114.912C254.887 113.232 253.815 112.816 252.519 112.816H250.647V116.848H252.471C253.543 116.848 254.887 116.544 254.887 114.912ZM265.265 106.976V108.096H262.817V116.896H265.265V118H258.961V116.896H261.409V108.096H258.961V106.976H265.265ZM271.93 118.176C269.306 118.176 267.626 116.288 267.626 112.48C267.626 108.688 269.866 106.8 272.25 106.8C273.69 106.8 274.522 107.216 275.386 108.016L274.554 108.88C273.882 108.256 273.162 107.968 272.25 107.968C270.65 107.968 269.114 109.088 269.114 112.48C269.114 115.68 270.122 117.008 272.042 117.008C272.81 117.008 273.514 116.832 274.138 116.48V113.136H271.978L271.818 111.968H275.53V117.216C274.538 117.776 273.482 118.176 271.93 118.176ZM285.348 112.432C285.348 117.056 282.644 118 280.356 118H277.828V106.976H280.18C282.772 106.976 285.348 107.856 285.348 112.432ZM283.86 112.432C283.86 108.592 282.036 108.112 280.516 108.112H279.22V116.88H280.532C282.116 116.88 283.86 116.08 283.86 112.432ZM289.486 108.128V111.84H293.582V112.976H289.486V116.88H294.51V118H288.11V106.976H294.366L294.206 108.128H289.486ZM302.632 115.184H298.264L297.384 118H296.008L299.608 106.976H301.368L304.952 118H303.512L302.632 115.184ZM298.632 114.032H302.264L300.456 108.16L298.632 114.032ZM307.457 118V106.976H308.833V116.768H313.873L313.697 118H307.457ZM322.827 106.976V108.096H320.379V116.896H322.827V118H316.523V116.896H318.971V108.096H316.523V106.976H322.827ZM333.317 112.496C333.317 115.84 331.941 118.176 329.269 118.176C326.597 118.176 325.221 115.92 325.221 112.512C325.221 109.184 326.597 106.8 329.269 106.8C331.941 106.8 333.317 109.104 333.317 112.496ZM331.877 112.496C331.877 109.568 331.125 107.968 329.269 107.968C327.413 107.968 326.661 109.584 326.661 112.512C326.661 115.456 327.461 117.008 329.269 117.008C331.125 117.008 331.877 115.44 331.877 112.496ZM338.863 115.36C339.599 115.36 340.159 115.936 340.159 116.64C340.159 117.04 340.079 117.408 339.855 117.904L338.559 120.864H337.343L338.095 117.712C337.791 117.488 337.583 117.072 337.583 116.656C337.583 115.936 338.143 115.36 338.863 115.36ZM355.426 118V106.976H356.802V116.768H361.842L361.666 118H355.426ZM365.02 118V106.976H366.396V116.768H371.436L371.26 118H365.02ZM378.166 106.8C379.606 106.8 380.486 107.184 381.366 107.872L380.582 108.784C379.878 108.192 379.11 107.968 378.262 107.968C376.47 107.968 374.902 109.12 374.902 112.48C374.902 115.76 376.358 116.992 378.246 116.992C379.478 116.992 380.214 116.544 380.806 116.08L381.526 116.976C380.854 117.632 379.798 118.176 378.23 118.176C375.542 118.176 373.446 116.192 373.446 112.48C373.446 108.768 375.622 106.8 378.166 106.8Z" fill="white"/>
</svg>
