<svg xmlns="http://www.w3.org/2000/svg" width="558" height="115" fill="none"><path fill="#fff" d="m.131 7.39 13.79 7.39v16.39a31.83 31.83 0 0 1 19.46-6.41 32.61 32.61 0 0 1 16.63 4.5 33.88 33.88 0 0 1 12.32 12.13 33.26 33.26 0 0 1 4.43 16.75 32.5 32.5 0 0 1-4.5 16.69 33.05 33.05 0 0 1-12.13 12.13 32.05 32.05 0 0 1-16.75 4.56 32.93 32.93 0 0 1-16.56-4.38 33.27 33.27 0 0 1-12.22-11.88 29.75 29.75 0 0 1-4.6-16.17l.13-51.7Zm17.24 60.05a18 18 0 0 0 6.77 6.71 18.7 18.7 0 0 0 18.54 0 19 19 0 0 0 6.84-6.77 18.7 18.7 0 0 0 0-18.54 19.07 19.07 0 0 0-6.78-6.84 18.54 18.54 0 0 0-9.36-2.46 18.25 18.25 0 0 0-9.3 2.46 18 18 0 0 0-6.71 6.78 18.54 18.54 0 0 0-2.46 9.36 18.25 18.25 0 0 0 2.46 9.3ZM76.731 24.39v66.88h16.14V24.39h-16.14Z"/><path fill="#EF4136" d="M93.601 9.49a9.119 9.119 0 0 1-17.624 3.582 9.12 9.12 0 0 1-.606-3.582 8.65 8.65 0 0 1 2.65-6.35 9.24 9.24 0 0 1 12.93 0 8.65 8.65 0 0 1 2.65 6.35Z"/><path fill="#fff" d="M106.661 41.09a33.524 33.524 0 0 1 12.07-12.25 31.671 31.671 0 0 1 16.75-4.56 33.532 33.532 0 0 1 28.95 16.38 31.428 31.428 0 0 1 4.56 16.63 33.263 33.263 0 0 1-4.31 16.62 31.703 31.703 0 0 1 2.21 11.58 29.204 29.204 0 0 1-3.82 14.72 26.449 26.449 0 0 1-10.71 10.41 29.795 29.795 0 0 1-13.8 3.57 29.222 29.222 0 0 1-12.07-2.59 28.453 28.453 0 0 1-10-7.39l11-6a17.461 17.461 0 0 0 11.11 4.02 15.998 15.998 0 0 0 7.83-2.09 14 14 0 0 0 5.6-5.42 13.635 13.635 0 0 0 1.85-7.14 7.86 7.86 0 0 0-.13-1.85 33.417 33.417 0 0 1-34.67.86 33.53 33.53 0 0 1-12.25-12.07 31.652 31.652 0 0 1-4.56-16.75 32.94 32.94 0 0 1 4.39-16.68Zm12.14 26.36a19.127 19.127 0 0 0 7.2 7.08 19.894 19.894 0 0 0 9.73 2.59 18.79 18.79 0 0 0 9.67-2.65 19.209 19.209 0 0 0 7.08-7.21 19.787 19.787 0 0 0 2.59-9.73 18.788 18.788 0 0 0-2.65-9.67 19.717 19.717 0 0 0-16.94-9.66c-3.4-.013-6.739.9-9.66 2.64a19.698 19.698 0 0 0-9.67 16.94 18.69 18.69 0 0 0 2.65 9.66v.01Z"/><path fill="#EF4136" d="M244.361 58.63a30.54 30.54 0 0 1-4.49 16.14 33.673 33.673 0 0 1-12.27 11.82 32.91 32.91 0 0 1-16.63 4.43 33.124 33.124 0 0 1-28.82-16.75 31.397 31.397 0 0 1-4.55-16.62 32.477 32.477 0 0 1 4.49-16.69 33.76 33.76 0 0 1 12.26-12.26 32.57 32.57 0 0 1 16.62-4.43 32.919 32.919 0 0 1 19.46 6.28V8.09l13.8-7.39.13 57.93Zm-16.56-10.65a20.56 20.56 0 0 0-7.09-7.21 18.997 18.997 0 0 0-9.73-2.58c-3.4-.013-6.739.9-9.66 2.64a19.598 19.598 0 0 0-7.09 7.09 17.937 17.937 0 0 0-2.71 9.73 18.75 18.75 0 0 0 2.65 9.66 19.648 19.648 0 0 0 7.08 7.09 18.003 18.003 0 0 0 9.73 2.71 18.787 18.787 0 0 0 9.67-2.65 20.629 20.629 0 0 0 7.21-7.08 18.996 18.996 0 0 0 2.58-9.73c.013-3.403-.9-6.745-2.64-9.67ZM431.691 0h-16.13v90.9h16.13V0Z"/><path fill="#fff" d="M440.721 88.39a8.775 8.775 0 0 1-2.64-6.45 8.663 8.663 0 0 1 2.64-6.33 9.2 9.2 0 0 1 12.9 0 8.643 8.643 0 0 1 2.64 6.33 9.12 9.12 0 0 1-15.54 6.45ZM466.481 15.92a8.775 8.775 0 0 1-2.64-6.45 8.63 8.63 0 0 1 2.64-6.33 9.2 9.2 0 0 1 12.9 0 8.62 8.62 0 0 1 2.64 6.33 9.12 9.12 0 0 1-15.54 6.45Zm14.81 75.11h-16.1v-66.7h16.1v66.7ZM507.261 86.3a32.77 32.77 0 0 1-12.1-12.21 31.363 31.363 0 0 1-4.56-16.59 32.44 32.44 0 0 1 4.48-16.65 33.776 33.776 0 0 1 12.22-12.22 33.133 33.133 0 0 1 33.17.06 33.755 33.755 0 0 1 12.28 12.1 33.105 33.105 0 0 1 4.43 16.71c.031 5.85-1.52 11.6-4.49 16.64a32.998 32.998 0 0 1-12.1 12.1 32 32 0 0 1-16.7 4.54 32.443 32.443 0 0 1-16.63-4.48Zm25.92-12.84a17.866 17.866 0 0 0 6.7-6.75 18.353 18.353 0 0 0 2.45-9.21 18.612 18.612 0 0 0-2.39-9.28 17.565 17.565 0 0 0-6.7-6.69 18.998 18.998 0 0 0-18.61-.06 17.555 17.555 0 0 0-6.69 6.69 18.511 18.511 0 0 0-2.46 9.34 18.164 18.164 0 0 0 2.46 9.27 17.874 17.874 0 0 0 6.76 6.69 18.581 18.581 0 0 0 18.48 0Z"/><path fill="#EF4136" d="M406.401 53.09v-2h-.2a35.544 35.544 0 0 0-23.784-29.112 35.549 35.549 0 0 0-36.616 8.512l-36.26 36c-.39.42-.79.84-1.19 1.23-.24.26-.48.5-.72.73-6.24 6.1-12 8.56-18.43 7.93a20.85 20.85 0 0 1-8.55-2.79l41.35-36.3-4.52-5.54c-5.66-6.91-12.66-10.43-22.76-11.44a35.578 35.578 0 0 0-39.32 31.864 35.582 35.582 0 0 0 32.32 38.946c1.143.12 2.291.18 3.44.18 9.44 0 18.17-4 26.52-12l.09-.08 1.27-1.27 12.42-12.31 4.39-4.36 20.37-20.19-.1-.09.81-.81.12.11a20.773 20.773 0 0 1 30.381 2.81 20.77 20.77 0 0 1 4.169 10.48v4.27a20.771 20.771 0 0 1-41.23.78l-11.77 11.81a35.748 35.748 0 0 0 7.23 10.44 35.593 35.593 0 0 0 45.77 3.81v6.06h14.8V58.33a34.718 34.718 0 0 0 0-5.24Zm-135.87.53a20.793 20.793 0 0 1 20.64-18.74c.69 0 1.39.05 2.08.11 2.403.18 4.763.726 7 1.62l-28.89 25.35a20.529 20.529 0 0 1-.83-8.3v-.04Z"/></svg>